<svg width="307" height="54" viewBox="0 0 307 54" fill="none" xmlns="http://www.w3.org/2000/svg">
<path d="M50.0479 12.3891L37.371 5.04576C36.1667 4.35867 34.8298 4 33.473 4C32.1162 4 30.7792 4.35867 29.575 5.04576L16.8981 12.3891C15.7467 13.0168 14.7743 13.9798 14.087 15.1732C13.3996 16.3667 13.0236 17.7445 13 19.1566V33.8433C13.0236 35.2554 13.3996 36.6334 14.087 37.8267C14.7743 39.0202 15.7467 39.9832 16.8981 40.6108L29.575 47.9542C30.7792 48.6413 32.1162 49 33.473 49C34.8298 49 36.1667 48.6413 37.371 47.9542L50.0479 40.6108C51.1992 39.9832 52.1717 39.0202 52.8589 37.8267C53.5463 36.6334 53.9223 35.2554 53.9459 33.8433V19.1566C53.9223 17.7445 53.5463 16.3667 52.8589 15.1732C52.1717 13.9798 51.1992 13.0168 50.0479 12.3891ZM47.5912 38.595H19.3712C16.5295 38.595 14.7443 35.4992 16.1692 33.0334L30.271 8.50147C30.6287 7.93162 31.1069 7.46577 31.6647 7.14395C32.2225 6.82214 32.843 6.65402 33.473 6.65402C34.103 6.65402 34.7234 6.82214 35.2812 7.14395C35.839 7.46577 36.3173 7.93162 36.6749 8.50147L50.7768 33.0334C52.2016 35.4992 50.4164 38.595 47.5747 38.595H47.5912Z" fill="#CED2D8"/>
<path d="M75.216 17.83V12.844H95.106V17.83H86.772L88.068 16.534V37H82.308V16.534L83.604 17.83H75.216ZM100.126 37V12.844H116.272V17.83H105.886V22.474H115.624V27.478H105.886V31.96H116.272V37H100.126ZM133.095 37.576C131.367 37.576 129.765 37.288 128.289 36.712C126.813 36.124 125.613 35.212 124.689 33.976C123.765 32.728 123.255 31.108 123.159 29.116H128.847C128.847 29.848 129.033 30.454 129.405 30.934C129.777 31.414 130.281 31.768 130.917 31.996C131.565 32.224 132.279 32.338 133.059 32.338C133.683 32.338 134.265 32.284 134.805 32.176C135.357 32.068 135.801 31.876 136.137 31.6C136.473 31.324 136.641 30.946 136.641 30.466C136.641 29.878 136.461 29.44 136.101 29.152C135.753 28.864 135.117 28.534 134.193 28.162L128.937 25.876C127.209 25.132 125.865 24.256 124.905 23.248C123.945 22.24 123.465 20.866 123.465 19.126C123.465 17.086 124.293 15.442 125.949 14.194C127.617 12.934 129.897 12.304 132.789 12.304C135.729 12.304 137.985 13 139.557 14.392C141.129 15.772 142.011 17.746 142.203 20.314H136.551C136.407 19.522 136.053 18.856 135.489 18.316C134.937 17.776 134.037 17.506 132.789 17.506C131.889 17.506 131.163 17.674 130.611 18.01C130.059 18.334 129.783 18.742 129.783 19.234C129.783 19.69 129.957 20.05 130.305 20.314C130.665 20.578 131.199 20.866 131.907 21.178L137.469 23.536C139.317 24.34 140.691 25.282 141.591 26.362C142.503 27.442 142.959 28.738 142.959 30.25C142.959 31.87 142.569 33.226 141.789 34.318C141.021 35.398 139.899 36.214 138.423 36.766C136.959 37.306 135.183 37.576 133.095 37.576ZM159.083 37.576C157.355 37.576 155.753 37.288 154.277 36.712C152.801 36.124 151.601 35.212 150.677 33.976C149.753 32.728 149.243 31.108 149.147 29.116H154.835C154.835 29.848 155.021 30.454 155.393 30.934C155.765 31.414 156.269 31.768 156.905 31.996C157.553 32.224 158.267 32.338 159.047 32.338C159.671 32.338 160.253 32.284 160.793 32.176C161.345 32.068 161.789 31.876 162.125 31.6C162.461 31.324 162.629 30.946 162.629 30.466C162.629 29.878 162.449 29.44 162.089 29.152C161.741 28.864 161.105 28.534 160.181 28.162L154.925 25.876C153.197 25.132 151.853 24.256 150.893 23.248C149.933 22.24 149.453 20.866 149.453 19.126C149.453 17.086 150.281 15.442 151.937 14.194C153.605 12.934 155.885 12.304 158.777 12.304C161.717 12.304 163.973 13 165.545 14.392C167.117 15.772 167.999 17.746 168.191 20.314H162.539C162.395 19.522 162.041 18.856 161.477 18.316C160.925 17.776 160.025 17.506 158.777 17.506C157.877 17.506 157.151 17.674 156.599 18.01C156.047 18.334 155.771 18.742 155.771 19.234C155.771 19.69 155.945 20.05 156.293 20.314C156.653 20.578 157.187 20.866 157.895 21.178L163.457 23.536C165.305 24.34 166.679 25.282 167.579 26.362C168.491 27.442 168.947 28.738 168.947 30.25C168.947 31.87 168.557 33.226 167.777 34.318C167.009 35.398 165.887 36.214 164.411 36.766C162.947 37.306 161.171 37.576 159.083 37.576ZM175.944 37V12.844H192.09V17.83H181.704V22.474H191.442V27.478H181.704V31.96H192.09V37H175.944ZM199.823 37V12.844H209.255C212.279 12.844 214.625 13.54 216.293 14.932C217.973 16.312 218.813 18.166 218.813 20.494C218.813 22.774 217.973 24.604 216.293 25.984C214.625 27.352 212.279 28.036 209.255 28.036H205.583V37H199.823ZM212.423 37L206.537 25.336H212.621L219.965 37H212.423ZM205.583 24.292H208.607C210.035 24.292 211.103 23.998 211.811 23.41C212.531 22.81 212.891 22.048 212.891 21.124C212.891 20.164 212.585 19.378 211.973 18.766C211.373 18.142 210.467 17.83 209.255 17.83H205.583V24.292ZM223.557 37L231.693 12.844H239.019L246.705 37H240.639L239.325 32.752H230.991L229.677 37H223.557ZM232.449 28.486H238.011L235.275 19.648L232.449 28.486ZM261.365 37.576C259.253 37.576 257.393 37.102 255.785 36.154C254.189 35.206 252.941 33.796 252.041 31.924C251.141 30.052 250.691 27.73 250.691 24.958C250.691 22.174 251.135 19.846 252.023 17.974C252.923 16.102 254.177 14.692 255.785 13.744C257.393 12.784 259.253 12.304 261.365 12.304C264.413 12.304 266.735 13.024 268.331 14.464C269.927 15.904 270.875 17.77 271.175 20.062L265.055 21.124C264.779 20.092 264.341 19.24 263.741 18.568C263.153 17.884 262.361 17.542 261.365 17.542C260.477 17.542 259.691 17.812 259.007 18.352C258.335 18.88 257.813 19.69 257.441 20.782C257.069 21.874 256.883 23.266 256.883 24.958C256.883 26.614 257.075 27.988 257.459 29.08C257.843 30.16 258.371 30.964 259.043 31.492C259.727 32.02 260.501 32.284 261.365 32.284C262.601 32.284 263.525 31.96 264.137 31.312C264.749 30.652 265.055 29.854 265.055 28.918H271.139C271.139 30.778 270.761 32.356 270.005 33.652C269.261 34.936 268.163 35.914 266.711 36.586C265.259 37.246 263.477 37.576 261.365 37.576ZM274.749 17.83V12.844H294.639V17.83H286.305L287.601 16.534V37H281.841V16.534L283.137 17.83H274.749Z" fill="#CED2D8"/>
</svg>
